<svg xmlns="http://www.w3.org/2000/svg" viewBox="0 0 1080 694">
  <g fill="#f48324">
    <path d="M505 47 413 68l12 72-45 31-33-24-60 65 34 25-22 25-110 20h186c21-60 70-97 148-97 75 0 126 36 148 99h184l-106-18-17-58-41-1-30-33 14-81-85-34-19 36-56-4z"/>
    <path d="M190 431h185c22 62 72 99 149 99 76 0 126-37 147-100h186l-108 17-17 58-40 1-31 34 14 80-85 34-20-36-55 4-10 46-92-21 12-72-44-31-34 24-60-66 34-24-22-25z"/>
    <path d="M300 324c0-20-12-31-38-31h-32c-23 0-31 9-31 23v37h23c4-8 12-11 25-11h28c8 0 12 3 12 8v3h-55c-25 0-38 8-38 26v2c0 15 10 23 31 23h75zm-20 63h-51c-10 0-15-3-15-9v-1c0-6 5-9 16-9h47c8 0 12 3 12 9v1c0 6-3 9-9 9z"/>
    <path d="M329 294v110h31v-39h17l33 39h37l-47-49 44-31h-36l-48 33v-63z"/>
    <path d="M508 324c0-20-12-31-38-31h-32c-23 0-31 9-31 23v37h23c4-8 12-11 25-11h28c8 0 12 3 12 8v3h-55c-25 0-38 8-38 26v2c0 15 10 23 31 23h75zm-20 63h-51c-10 0-15-3-15-9v-1c0-6 5-9 16-9h47c8 0 12 3 12 9v1c0 6-3 9-9 9z"/>
    <path d="M515 374c0 20 13 30 39 30h31c26 0 39-10 39-30 0-17-10-24-32-24h-45c-8 0-12-2-12-7s5-7 15-7h33c10 0 16 2 18 8h21c-1-20-14-30-39-30h-31c-25 0-38 10-38 29 0 17 10 25 31 25h45c9 0 13 2 13 7 0 6-5 8-16 8h-34c-11 0-17-3-19-9z"/>
    <path d="M628 294v110h21v-49c0-10 7-15 21-15h35c13 0 20 5 20 16v48h21v-52c0-25-14-38-42-38h-28c-12 0-21 3-27 9v-29z"/>
    <path d="M844 324c0-20-12-31-38-31h-32c-23 0-31 9-31 23v37h23c4-8 12-11 25-11h28c8 0 12 3 12 8v3h-55c-25 0-38 8-38 26v2c0 15 10 23 31 23h75zm-20 63h-51c-10 0-15-3-15-9v-1c0-6 5-9 16-9h47c8 0 12 3 12 9v1c0 6-3 9-9 9z"/>
  </g>
</svg>
